# xmcd
#
# Track frame offsets: 
#        150
#        11536
#        25729
#        38876
#        52960
#        68467
#        80778
#        96508
#        110282
#        128558
#
# Disc length: 1921 seconds
#
# Revision: 0
# Processed by: cddbd v1.5.2PL0 Copyright (c) Steve Scherf et al.
# Submitted via: ExactAudioCopy v1.0b4
#
DISCID=75077f0a
DTITLE=Kris Kristofferson - Jesus was a capricorn
DYEAR=1972
DGENRE=
TTITLE0=Jesus was a capricorn (Owed to John Prine) 
TTITLE1=Nobody wins
TTITLE2=It sure was (Love)
TTITLE3=Enough for you
TTITLE4=Help me
TTITLE5=Jesse Younger
TTITLE6=Give it time to be tender
TTITLE7=Out of mind, out of sight
TTITLE8=Sugar man
TTITLE9=Why me
EXTD=
EXTT0=
EXTT1=
EXTT2=
EXTT3=
EXTT4=
EXTT5=
EXTT6=
EXTT7=
EXTT8=
EXTT9=
PLAYORDER=
